<svg width="370" height="217" viewBox="0 0 370 217" fill="none" xmlns="http://www.w3.org/2000/svg">
<g clip-path="url(#clip0_283_617)">
<rect width="370" height="217" rx="25" fill="white"/>
<rect width="370" height="217" rx="25" fill="url(#paint0_linear_283_617)"/>
<path d="M181.313 -61C192.104 73.5 108.604 57.5 67.1036 72C-14.4626 100.499 39.1037 241 -23 164C-23 97.1736 -27.7228 -154 39.1037 -154C105.93 -154 175.969 -127.612 181.313 -61Z" fill="url(#paint1_linear_283_617)"/>
<path d="M340 180.636C550 54.5 393 423.136 201.5 356.136C45.9999 265.636 17.0682 253.433 34.5057 191.5C49.0057 140 80.8902 64 158.006 113C235.121 162 219.5 226.5 340 180.636Z" fill="url(#paint2_linear_283_617)"/>
<path d="M457.5 4.02059C500.11 55.7326 554.107 54.0105 367.607 120.01C242.716 266.01 138.826 16.9551 242.716 -12.2569C292.826 -118.757 244.5 -102.479 351 -102.479C409.818 -102.479 457.5 -54.7977 457.5 4.02059Z" fill="#8D60F7"/>
</g>
<defs>
<linearGradient id="paint0_linear_283_617" x1="254.5" y1="5.11083e-06" x2="42.5" y2="236" gradientUnits="userSpaceOnUse">
<stop stop-color="#4339FF"/>
<stop offset="0.419784" stop-color="#434EFC"/>
<stop offset="0.881528" stop-color="#6800A9"/>
</linearGradient>
<linearGradient id="paint1_linear_283_617" x1="219" y1="-96.5" x2="-9.50003" y2="187" gradientUnits="userSpaceOnUse">
<stop offset="0.245383" stop-color="#FDA998"/>
<stop offset="0.771178" stop-color="#D26651"/>
<stop offset="1" stop-color="#B03117"/>
</linearGradient>
<linearGradient id="paint2_linear_283_617" x1="30" y1="131.5" x2="354.5" y2="231" gradientUnits="userSpaceOnUse">
<stop offset="0.0936053" stop-color="#31E3CB"/>
<stop offset="0.30184" stop-color="#29BCA8"/>
<stop offset="0.532929" stop-color="#219787"/>
<stop offset="0.96631" stop-color="#1B7D70"/>
</linearGradient>
<clipPath id="clip0_283_617">
<rect width="370" height="217" rx="25" fill="white"/>
</clipPath>
</defs>
</svg>
