<svg width="9" height="12" viewBox="0 0 9 12" fill="none" xmlns="http://www.w3.org/2000/svg">
<path d="M0.100098 4.18006C0.360098 4.74006 0.490098 5.34006 0.500098 5.98006C0.510098 6.61006 0.370098 7.23006 0.100098 7.84006L1.4701 8.46006C1.8401 7.65006 2.0201 6.81006 2.0101 5.96006C2.0001 5.12006 1.8201 4.31006 1.4701 3.56006L0.100098 4.18006Z" fill="#323232"/>
<path d="M6.33008 1.33003C7.11008 2.90003 7.51008 4.47003 7.51008 5.97003C7.51008 7.48003 7.11008 9.06003 6.33008 10.66L7.68008 11.32C8.56008 9.51003 9.01008 7.71003 9.01008 5.97003C9.01008 4.23003 8.56008 2.44003 7.68008 0.660034L6.33008 1.33003Z" fill="#323232"/>
<path d="M3.2002 2.72005C3.7302 3.79005 4.0002 4.93005 4.0002 6.12005C4.0002 7.29005 3.7402 8.35005 3.2202 9.27005L4.5202 10.01C5.1702 8.86005 5.5002 7.56005 5.5002 6.12005C5.5002 4.70005 5.1802 3.33005 4.5402 2.05005L3.2002 2.72005Z" fill="#323232"/>
</svg>
