<svg width="232" height="59" viewBox="0 0 232 59" fill="none" xmlns="http://www.w3.org/2000/svg">
<path d="M67.9298 58.9995H46.801L33.9721 36.5813H55.0978L67.9298 58.9995ZM33.8964 0L44.4909 18.2581L21.0882 59H0L33.8964 0ZM81.0401 28.8635L77.4795 22.0277L73.7441 28.8635H81.0401ZM82.51 31.7196H72.2368L69.5656 36.5812H65.6512L77.5492 15.2137L89.0144 36.5812H85.0481L82.51 31.7196ZM97.0496 26.0887L90.4266 16.5084H94.5552L99.1519 23.289L103.959 16.5084H108.12L101.207 26.0887L108.473 36.5812H104.409L99.0957 28.8885L93.6034 36.5812H89.5018L97.0496 26.0887ZM115.345 36.5816H111.726V16.5077H115.344L115.345 36.5816ZM133.442 19.4618L130.487 20.9305C129.935 20.1331 129.419 19.6129 128.913 19.368C128.395 19.0886 127.731 18.9521 126.907 18.9521C125.909 18.9521 125.079 19.1918 124.4 19.6776C123.74 20.1404 123.408 20.7252 123.409 21.4329C123.409 22.4263 124.284 23.2102 126.019 23.8033L128.418 24.6319C130.367 25.2719 131.791 26.0923 132.703 27.0336C133.619 27.9904 134.054 29.1506 134.054 30.5442C134.054 32.384 133.322 33.9226 131.84 35.1088C130.366 36.3356 128.51 36.9412 126.312 36.9412C124.227 36.9412 122.501 36.4284 121.151 35.3829C119.801 34.3353 118.978 32.8885 118.638 31.0258L122.308 30.3462C122.483 31.5335 122.761 32.3319 123.188 32.7884C123.928 33.6494 125.033 34.0904 126.457 34.0904C127.596 34.0904 128.526 33.7839 129.27 33.1356C130.023 32.5091 130.39 31.7013 130.39 30.734C130.39 30.3462 130.334 29.9834 130.178 29.6707C130.074 29.3309 129.868 29.0422 129.596 28.767C129.332 28.5085 128.959 28.2302 128.526 27.9977C128.093 27.7528 127.575 27.5454 126.974 27.3067L124.657 26.503C121.351 25.346 119.725 23.649 119.725 21.4079C119.725 19.8965 120.417 18.6519 121.79 17.6398C123.161 16.6099 124.88 16.0856 126.934 16.0877C129.699 16.0877 131.884 17.2134 133.442 19.4618ZM151.889 33.7232H154.133C155.786 33.7232 156.991 33.4594 157.759 32.9309C158.562 32.342 158.976 31.6071 158.976 30.7243C158.976 29.8507 158.562 29.1201 157.794 28.5144C157.033 27.9662 155.687 27.6555 153.725 27.6555H151.889V33.7232ZM151.889 25.1236H153.038C154.382 25.1236 155.379 24.8787 156 24.3783C156.62 23.8769 156.943 23.1452 156.943 22.1862C156.943 21.2273 156.62 20.5059 155.981 20.0369C155.328 19.5313 154.401 19.2853 153.173 19.2853H151.889V25.1236ZM148.267 36.5813V16.5074H151.889C153.496 16.5074 154.776 16.5971 155.732 16.8108C156.694 17.0119 157.505 17.3799 158.165 17.8521C158.846 18.3847 159.366 19.0154 159.769 19.7951C160.185 20.5445 160.387 21.3346 160.387 22.1216C160.387 23.559 159.718 24.7744 158.4 25.7741C159.688 26.1358 160.682 26.7737 161.42 27.6858C162.176 28.5832 162.544 29.6214 162.544 30.842C162.544 32.3973 161.885 33.7231 160.55 34.8145C159.756 35.4837 158.86 35.9538 157.864 36.2019C156.771 36.4594 155.41 36.5813 153.764 36.5813H148.267ZM178.137 28.8635L174.563 22.0277L170.812 28.8635H178.137ZM179.611 31.7196H169.324L166.649 36.5812H162.733L174.613 15.2137L186.098 36.5812H182.112L179.611 31.7196ZM188.473 36.5816V15.112L205.987 30.4609V16.5077H209.615V37.8064L192.097 22.5097V36.5816H188.473ZM217.738 24.522L227.098 16.5083H231.925L221.071 25.6029L232 36.5811H227.141L218.493 27.647L217.738 28.2745V36.5811H214.104V16.5083H217.738V24.522Z" fill="#AE285D"/>
</svg>
