<svg width="160" height="65" viewBox="0 0 160 65" fill="none" xmlns="http://www.w3.org/2000/svg">
<g clip-path="url(#clip0_290_4658)">
<path fill-rule="evenodd" clip-rule="evenodd" d="M71.911 0.916443H151.349C155.591 0.916443 159.094 4.58639 159.094 9.06507V56.0163C159.094 60.4939 155.591 64.1649 151.35 64.1649H71.912C67.6603 64.1649 64.1868 60.4939 64.1868 56.0173V9.06507C64.1868 4.58639 67.6603 0.916443 71.911 0.916443Z" fill="#FAB90C"/>
<path d="M71.911 1.75579C68.1133 1.75579 65.0251 5.03403 65.0251 9.06506V56.0173C65.0251 60.0462 68.1133 63.3266 71.911 63.3266H151.349C155.159 63.3266 158.258 60.0462 158.258 56.0173V9.06611C158.258 5.03298 155.159 1.75579 151.35 1.75579H71.911ZM151.349 65H71.911C67.1947 65 63.3538 60.9711 63.3538 56.0173V9.06611C63.3538 4.11443 67.1947 0.0812988 71.911 0.0812988H151.349C156.083 0.0812988 159.932 4.11443 159.932 9.06611V56.0173C159.932 60.9711 156.083 65 151.35 65" fill="white"/>
<path fill-rule="evenodd" clip-rule="evenodd" d="M56.1459 0.839355H8.9445C4.53339 0.839355 0.906738 4.50296 0.906738 8.97953V55.974C0.906738 60.4485 4.53339 64.1131 8.9445 64.1131H56.1459C60.5834 64.1131 64.1858 60.4485 64.1858 55.974V8.98059C64.1858 4.50402 60.5834 0.839355 56.1459 0.839355Z" fill="#9E173B"/>
<path d="M8.94448 1.67766C4.97259 1.67766 1.74608 4.95273 1.74608 8.98059V55.974C1.74608 60.0008 4.97259 63.2748 8.94448 63.2748H56.1459C60.1157 63.2748 63.3538 60.0008 63.3538 55.9729V8.98059C63.3538 4.95273 60.1146 1.67766 56.1459 1.67766H8.94448ZM56.1459 64.9493H8.94448C4.04877 64.9493 0.0684204 60.9215 0.0684204 55.9729V8.98059C0.0684204 4.02997 4.04877 0 8.94448 0H56.1459C61.0384 0 65.0251 4.02997 65.0251 8.98059V55.974C65.0251 60.9215 61.0384 64.9493 56.1459 64.9493Z" fill="white"/>
<path fill-rule="evenodd" clip-rule="evenodd" d="M138.082 45.3094C145.182 45.3094 150.986 39.5986 150.986 32.6198C150.986 24.0848 142.299 18.5408 134.086 21.1708V26.8795C138.565 24.2505 144.564 26.8795 144.564 32.1669C144.564 35.8696 141.323 38.982 137.619 38.982C133.762 38.982 130.68 35.8696 130.68 32.1669C130.68 24.41 130.513 16.6678 130.513 8.91406H125.065L125.071 32.6198L125.201 33.8519C125.402 40.0526 131.165 45.1468 138.082 45.3094ZM100.253 44.4004H105.834V31.9705C105.378 24.7045 117.289 24.0848 116.964 31.9705V44.4004H122.606V31.6833C123.089 15.7461 99.2857 16.7892 100.253 31.6833V44.4004ZM85.1423 19.7719C92.2456 19.7719 98.0166 25.4826 98.0166 32.4593C98.0166 40.9944 89.49 46.5774 81.2833 43.9137V38.1986C85.6311 40.8297 91.5657 38.1986 91.5657 32.9439C91.5657 29.2149 88.5124 26.0992 84.6587 26.0992C80.7924 26.0992 77.7496 29.2149 77.7496 32.9439C77.7496 40.666 77.5891 48.2551 77.5891 56.0057H72.2637V31.2272C72.4242 25.0297 78.2342 19.9028 85.1423 19.7719Z" fill="#9E173B"/>
<path fill-rule="evenodd" clip-rule="evenodd" d="M44.4118 9.10306H55.9337V55.86H44.4118V42.6203C34.2624 46.3314 24.7719 46.6587 16.0531 38.1163C12.4413 34.3577 10.4046 29.2371 11.2567 20.3156C11.4024 18.9494 10.7636 12.6125 9.15985 9.09039H19.3937C24.188 16.7027 17.905 26.4181 25.2502 32.6198C35.2612 39.1003 43.9895 31.3508 44.4118 24.354V9.10306ZM32.9321 13.928C38.3885 13.928 42.7964 18.3423 42.7964 23.6931C42.7964 29.0935 38.3885 33.4645 32.9321 33.4645C27.4768 33.4645 23.0214 29.0935 23.0214 23.6931C23.0214 18.3423 27.4768 13.928 32.9321 13.928Z" fill="#FAB90C"/>
</g>
<defs>
<clipPath id="clip0_290_4658">
<rect width="160" height="65" fill="white"/>
</clipPath>
</defs>
</svg>
